<?xml version="1.0" standalone="no"?>
<!DOCTYPE svg PUBLIC "-//W3C//DTD SVG 20010904//EN"
 "http://www.w3.org/TR/2001/REC-SVG-20010904/DTD/svg10.dtd">
<svg version="1.0" xmlns="http://www.w3.org/2000/svg"
 width="500.000000pt" height="500.000000pt" viewBox="0 0 500.000000 500.000000"
 preserveAspectRatio="xMidYMid meet">

<g transform="translate(0.000000,500.000000) scale(0.100000,-0.100000)"
fill="#986dff" stroke="none">
<path d="M1568 3673 c-20 -54 -96 -255 -168 -446 -138 -367 -144 -390 -94
-407 40 -14 82 9 141 77 94 109 111 123 149 123 28 0 36 -5 44 -26 27 -70 -29
-126 -303 -307 -383 -253 -498 -404 -485 -636 11 -181 107 -306 268 -347 102
-26 234 -7 355 52 72 35 185 145 234 227 91 154 137 386 128 637 -3 80 -2 136
3 125 50 -126 262 -696 271 -730 6 -25 9 -74 7 -110 -3 -55 -8 -69 -33 -95
-32 -33 -106 -60 -167 -60 -21 0 -38 -4 -38 -10 0 -6 115 -10 325 -10 179 0
325 4 325 8 0 4 -20 13 -44 20 -55 14 -113 77 -162 177 -19 39 -185 467 -368
950 -183 484 -337 880 -342 882 -5 2 -26 -41 -46 -94z m102 -478 c146 -387
154 -423 147 -675 -6 -211 -24 -297 -98 -448 -81 -166 -191 -259 -336 -282
-241 -39 -414 167 -359 428 33 159 134 280 371 448 219 154 265 206 265 295 0
74 -49 100 -114 60 -17 -11 -57 -52 -90 -91 -64 -78 -116 -112 -144 -93 -33
21 -35 16 200 641 11 30 24 50 28 45 5 -4 63 -152 130 -328z"/>
<path d="M3295 3764 c-261 -27 -367 -34 -517 -34 -112 0 -178 -4 -178 -10 0
-5 12 -10 28 -10 72 0 121 -67 141 -190 15 -88 15 -1492 0 -1580 -20 -123 -69
-190 -141 -190 -16 0 -28 -4 -28 -10 0 -6 95 -10 265 -10 245 0 323 8 226 24
-76 12 -112 71 -131 218 -8 62 -15 638 -7 638 1 0 34 -11 72 -24 134 -46 230
-61 385 -61 167 0 232 14 350 72 103 52 214 161 263 260 52 106 71 202 65 332
-14 281 -176 482 -445 552 -77 20 -261 32 -348 23z m254 -57 c140 -50 247
-142 306 -262 48 -98 66 -174 66 -291 2 -288 -165 -526 -411 -585 -116 -27
-360 -8 -501 39 l-54 19 -3 526 -2 525 49 17 c110 36 174 44 326 42 133 -3
159 -6 224 -30z"/>
</g>
</svg>
